<?xml version="1.0" encoding="utf-8"?>
<!-- Generator: Adobe Illustrator 19.0.0, SVG Export Plug-In . SVG Version: 6.00 Build 0)  -->
<svg version="1.1" id="Layer_1" xmlns="http://www.w3.org/2000/svg" xmlns:xlink="http://www.w3.org/1999/xlink" x="0px" y="0px"
	 viewBox="-178.4 529.7 230.8 238.6" style="enable-background:new -178.4 529.7 230.8 238.6;" xml:space="preserve">
<style type="text/css">
	.st0{fill:#0066CC;}
</style>
<title>mailbird-logo-freelogovectors.net_</title>
<g>
	<path class="st0" d="M-85.1,667.6l0.2-0.4c27,26.6,57.5-1.9,57.5-1.9c-14.4-30.4-34.9-32.3-42.9-31.7c0,0,19-8.5,40.2,10.8
		c5.6,5.6,11.2,13.2,16.2,23.7C-13.9,668-52.2,703.8-85.1,667.6 M-87.3,600.4c-0.4-3.2,1.9-6.1,5.1-6.4c0,0,0,0,0,0l0,0
		c3.2-0.5,6.1,1.7,6.6,4.9c0.5,3.2-1.7,6.1-4.9,6.6c-0.1,0-0.2,0-0.2,0l0,0C-84,605.9-86.9,603.6-87.3,600.4 M51.7,620.9
		c1.8,31.3-24.3,44.1-45,41c-17.2-2.6-26.3-17.3-29-27c-0.3-0.9-0.5-1.8-0.7-2.7c0-0.2-0.1-0.4-0.1-0.7
		c-3.5-22.2-18.8-35.1-22.9-37.8c-14.4-8.8-37.1-14.4-56.3-0.7c-1,0.7-2,1.5-3,2.3l0,0c-3.3,2.8-8.8,5.4-23.8,2.8
		c0,0,10,9.1,7.2,18.4l0,0c-4.2,10.1-4.3,20.1-3.5,28.3c7.2,46.8,50.9,79.8,98.9,74.1C22.6,713.1,57.6,669.2,51.7,620.9"/>
	<path class="st0" d="M-3.3,745.1c-2.2-7.8-4.9-9.2-7.8-8.9c-1.7,0.5-3.4,0.9-5.1,1.3l-0.1,0l0,0c-5.9,1.4-12,2.4-18,3
		c-36.5,3.4-70.6-8.6-91.7-30.9v0c-2.7-2.8-5.1-5.8-7.4-8.9c-0.3-0.4-0.6-0.8-0.9-1.3c-0.1-0.2-0.2-0.4-0.4-0.5
		c-2-2.9-3.7-5.9-5.3-9c0,0-0.1,0-0.1,0c-2.7-5.3-4.9-10.9-6.4-16.7l0,0c-2.5-7-3.3-16.1-3.6-23.7c-0.3-4.5-0.3-8.9,0.1-13.4v0
		c0-0.1,0-0.3,0-0.4c3.7-39,34.4-71.5,75.3-76.3c47.1-5.6,89.9,27.6,95.6,74.3c1,7.9,0.8,15.9-0.5,23.7c5.3-1.1,10.7-3.3,15.3-6.9
		c4.1-3.8,21.1-18.9,5.2-59.1c-21.8-41.1-67.6-66.7-116.9-60.8c-63.8,7.6-109.3,64.9-101.6,128.1c0.1,0.8,0.2,1.6,0.3,2.4
		s0.2,1.6,0.3,2.4c3.7,30.2,18.8,56.2,40.6,74.4c20.4,15.9,44.7,26.1,70.4,29.3h0c20.6,2.5,41.6,1.3,61.8-3.7c3.7-1.1,5-2.7,4.2-6.1
		C-1,752.5,0,757.2-3.3,745.1"/>
</g>
</svg>
